<svg width="231" height="29" viewBox="0 0 231 29" fill="none" xmlns="http://www.w3.org/2000/svg">
<path d="M8.87891 23.8242H16.2812V29H5.42188L0.246094 23.8242V8.25781L5.42188 3.08203H8.87891V23.8242ZM13.4492 14.625H25.3047V29H17.6484V19.7617H13.4492V14.625ZM10.2461 8.25781V3.08203H20.7734L25.3047 8.25781V10.8555H16.6719V8.25781H10.2461Z" fill="#B2B2B2"/>
<path d="M45.9102 8.25781H39.5039V3.08203H49.5234L54.7188 8.25781V13.5312L52.1211 16.1289L54.7188 18.7266V23.8242L49.5234 29H39.5039V23.8242H45.9102V18.2969H39.5039V13.7852H45.9102V8.25781ZM29.5039 3.08203H38.1367V29H29.5039V3.08203Z" fill="#B2B2B2"/>
<path d="M85.0898 29V19.293H73.8789L68.6836 14.0977V8.25781L73.8789 3.08203H76.8086V12.2812H88.7227L93.7422 17.4766V23.8242L88.5664 29H85.0898ZM78.1758 7.75V3.08203H88.5469L93.0391 7.59375V10.3477H85.0898V7.75H78.1758ZM68.6836 21.2266H77.3164V24.3125H83.7227V29H73.0391L68.6836 23.8242V21.2266Z" fill="#B2B2B2"/>
<path d="M106.555 23.8242H112.258V29H103.117L97.9219 23.8242V13.4336H96.2031V8.25781H97.9219V6.01172L106.555 3.08203V23.8242ZM107.922 13.4336V8.25781H112.57V13.4336H107.922Z" fill="#B2B2B2"/>
<path d="M137.883 8.25781V29H129.25V8.25781H137.883ZM124.035 23.8242H127.883V26.4023L125.383 29H120.598L115.402 23.8242V8.25781H124.035V23.8242Z" fill="#B2B2B2"/>
<path d="M164.562 0.347656V29H155.93V0.347656H164.562ZM150.402 24.1562H154.562V26.9492L152.512 29H146.438L141.77 24.332V12.9258L146.438 8.25781H154.562V13.4336H150.402V24.1562Z" fill="#B2B2B2"/>
<path d="M168.645 8.25781H177.297V29H168.645V8.25781ZM168.645 0.171875H177.297V5.67969H168.645V0.171875Z" fill="#B2B2B2"/>
<path d="M204.523 23.8242L199.348 29H193.566V24.1562H195.715V13.4336H193.566V8.25781H199.348L204.523 13.4336V23.8242ZM189.953 24.1562H192.199V29H186.398L181.223 23.8242V13.4336L186.398 8.25781H192.199V13.4336H189.953V24.1562Z" fill="#B2B2B2"/>
<path d="M212.941 8.25781H216.398V15.582H226.242L230.734 20.1133V24.1562L225.91 29H222.102V21.168H212.766L208.273 16.8516V12.9062L212.941 8.25781ZM216.906 25.1914H220.734V29L211.848 28.9805L208.254 24.7227V23.0625H216.906V25.1914ZM222.102 12.0664H217.766V8.25781H226.945L230.031 11.3438V13.6875H222.102V12.0664Z" fill="#B2B2B2"/>
</svg>
